<?xml version="1.0" encoding="utf-8"?>
<!-- Generator: Adobe Illustrator 28.3.0, SVG Export Plug-In . SVG Version: 6.00 Build 0)  -->
<svg version="1.1" id="Layer_1" xmlns="http://www.w3.org/2000/svg" xmlns:xlink="http://www.w3.org/1999/xlink" x="0px" y="0px"
	 viewBox="0 0 800 800" style="enable-background:new 0 0 800 800;" xml:space="preserve">
<style type="text/css">
	.st0{fill:#C2C7E5;}
	.st1{fill:#F5BB1B;}
	.st2{fill:#35464E;}
	.st3{fill:#E72845;}
	.st4{fill:#C7161E;}
	.st5{fill:#526C78;}
	.st6{fill:#263137;}
</style>
<g>
	<path class="st0" d="M593.2,163.6h28.1v513.6h-27.9V163.6H593.2z"/>
	<path id="crash_x5F_cymbal_x5F_1" class="st1" d="M621.4,154.1v-13.3h-27.9v13.3h-71.9v25.7h172v-25.7H621.4z M521.3,200.5h172
		v25.7h-172V200.5z"/>
	<path class="st0" d="M183.1,163.6H211v513.6h-27.9V163.6z"/>
	<path id="crash_x5F_cymbal_x5F_2" class="st1" d="M122.6,118.5l159,66.1l-9.8,23.9l-159-66.1L122.6,118.5z"/>
	<path id="drum_x5F_1" class="st2" d="M77.5,270.1h230.4v25.7H77.5V270.1z"/>
	<path class="st3" d="M88.6,295.8h208.1v98.5H88.6V295.8z"/>
	<path class="st2" d="M77.5,394.3h230.4v26H77.5V394.3z"/>
	<path class="st4" d="M88.6,295.8h208.1v28.4H88.6V295.8z"/>
	<path class="st2" d="M123.2,295.8h30.5V363h-30.5V295.8z M232.8,295.8h30.5V363h-30.5V295.8z"/>
	<path id="drum_x5F_2" class="st2" d="M492.1,270.1h230.4v25.7H492.1V270.1z"/>
	<path class="st3" d="M503.3,295.8h208.1v98.5H503.3V295.8z"/>
	<path class="st2" d="M492.1,394.3h230.4v26H492.1V394.3z"/>
	<path class="st4" d="M503.3,295.8h208.1v28.4H503.3V295.8z"/>
	<path class="st2" d="M537.5,295.8H568V363h-30.5V295.8z M647.4,295.8h30.5V363h-30.5V295.8z"/>
	<path class="st0" d="M552.4,656.8L528.2,677l-38-45.7l24.2-20.2L552.4,656.8z M290.6,611.2l24.2,20.2l-38,45.7l-24.2-20.2
		L290.6,611.2z"/>
	<path class="st5" d="M239.9,505.2c0,90.2,73,163.2,163.2,163.2s163.2-73,163.2-163.2S493.4,342,403.2,342
		C312.9,342,239.9,415,239.9,505.2L239.9,505.2z"/>
	<path class="st6" d="M403.2,681.5c-97.1,0-176-79.1-176.2-176.2c0-97.1,78.8-176,176.2-176.2c97.1,0,176,78.8,176.2,176.2
		C579.2,602.4,500.3,681.5,403.2,681.5z M403.2,355C320.1,355,253,422.4,253,505.2s67.4,150.2,150.2,150.2s150.5-67.4,150.5-150.2
		C553.4,422.2,486,355,403.2,355L403.2,355z"/>
</g>
</svg>
