<?xml version="1.0" encoding="utf-8"?>
<!-- Generator: Adobe Illustrator 28.1.0, SVG Export Plug-In . SVG Version: 6.00 Build 0)  -->
<svg version="1.1" id="Layer_1" xmlns="http://www.w3.org/2000/svg" xmlns:xlink="http://www.w3.org/1999/xlink" x="0px" y="0px"
	 viewBox="0 0 800 800" style="enable-background:new 0 0 800 800;" xml:space="preserve">
<style type="text/css">
	.st0{fill:#C2C7E5;}
	.st1{fill:#F5BB1B;}
	.st2{fill:#35464E;}
	.st3{fill:#E72845;}
	.st4{fill:#C7161E;}
	.st5{fill:#526C78;}
	.st6{fill:#263137;}
</style>
<g>
	<path class="st0" d="M251.4,322.2H262v193.5h-10.5V322.2z"/>
	<path id="crash_x5F_cymbal_x5F_1" class="st1" d="M262,318.6v-5h-10.5v5h-27.1v9.7h64.8v-9.7H262z M224.3,336.1h64.8v9.7h-64.8
		V336.1z"/>
	<path class="st0" d="M96.9,322.2h10.5v193.5H96.9V322.2z"/>
	<path id="crash_x5F_cymbal_x5F_2" class="st1" d="M74.1,305.2l59.9,24.9l-3.7,9l-59.9-24.9L74.1,305.2z"/>
	<path id="drum_x5F_1" class="st2" d="M57.1,362.3h86.8v9.7H57.1V362.3z"/>
	<path class="st3" d="M61.3,372h78.4v37.1H61.3C61.3,409.1,61.3,372,61.3,372z"/>
	<path class="st2" d="M57.1,409.1h86.8v9.8H57.1V409.1z"/>
	<path class="st4" d="M61.3,372h78.4v10.7H61.3C61.3,382.7,61.3,372,61.3,372z"/>
	<path class="st2" d="M74.3,372h11.5v25.3H74.3V372z M115.6,372h11.5v25.3h-11.5V372z"/>
	<path id="drum_x5F_2" class="st2" d="M213.3,362.3h86.8v9.7h-86.8V362.3z"/>
	<path class="st3" d="M217.5,372h78.4v37.1h-78.4V372z"/>
	<path class="st2" d="M213.3,409.1h86.8v9.8h-86.8V409.1z"/>
	<path class="st4" d="M217.5,372h78.4v10.7h-78.4V372z"/>
	<path class="st2" d="M230.4,372h11.5v25.3h-11.5V372z M271.8,372h11.5v25.3h-11.5V372z"/>
	<path class="st0" d="M236,508l-9.1,7.6l-14.3-17.2l9.1-7.6L236,508z M137.4,490.8l9.1,7.6l-14.3,17.2l-9.1-7.6L137.4,490.8z"/>
	<path class="st5" d="M118.3,450.9c0,34,27.5,61.5,61.5,61.5s61.5-27.5,61.5-61.5s-27.5-61.5-61.5-61.5
		C145.8,389.4,118.3,416.9,118.3,450.9L118.3,450.9z"/>
	<path class="st6" d="M179.8,517.3c-36.6,0-66.3-29.8-66.4-66.4c0-36.6,29.7-66.3,66.4-66.4c36.6,0,66.3,29.7,66.4,66.4
		C246.1,487.5,216.4,517.3,179.8,517.3z M179.8,394.3c-31.3,0-56.6,25.4-56.6,56.6c0,31.2,25.4,56.6,56.6,56.6s56.7-25.4,56.7-56.6
		C236.4,419.6,211,394.3,179.8,394.3L179.8,394.3z"/>
</g>
</svg>
