<?xml version="1.0" encoding="utf-8"?>
<!-- Generator: Adobe Illustrator 28.3.0, SVG Export Plug-In . SVG Version: 6.00 Build 0)  -->
<svg version="1.1" id="Layer_1" xmlns="http://www.w3.org/2000/svg" xmlns:xlink="http://www.w3.org/1999/xlink" x="0px" y="0px"
	 viewBox="0 0 800 800" style="enable-background:new 0 0 800 800;" xml:space="preserve">
<style type="text/css">
	.st0{fill:#BB1A34;}
	.st1{fill:#292F33;}
	.st2{fill:#F5F8FA;}
	.st3{fill:#CCD6DD;}
</style>
<g>
	<path class="st0" d="M483.1,439.8c-42.9,12.4-57.3-49.5-57.3-49.5s19.4-17,4.7-32c22.9-19.8,9.7-29.7,9.7-29.7
		c-39.4-34-103.5-34-143.2,0c-4.1,3.6-7.9,7.6-11.2,11.9c-1.2,1.5-2.4,3-3.5,4.6l-0.3,0.5c-5.9,8.1-9.7,17-12.4,26.4
		c-3.2,5.6-7.6,11.4-15.9,18.5c-28.5,24.6-100.3-12.4-157.3,37.1c-0.6,0.5-0.9,1.3-1.5,1.8c-2.1,1.5-3.8,2.8-5.9,4.3
		c-67.3,58.1-60.9,157.7,14.4,222.4c71.5,61.7,178.8,69.6,247,20.6c1.2-0.5,2.4-1,3.2-1.8c1.5-1.3,2.6-2.5,3.8-3.8
		c1.2-0.8,2.1-1.8,3.2-2.5c34.1-29.5,47.3-65.3,42.3-101.6c-1.5-17.3-3.2-30.7,7.9-40.6c14.4-12.4,57.3,0,85.9-24.6
		C540.2,464.4,510.2,431.9,483.1,439.8L483.1,439.8z"/>
	<path class="st1" d="M344.3,410.8L655.2,143l42.9,37.1L387.6,448.2L344.3,410.8z"/>
	<path class="st2" d="M243.5,589.6c36.2,22.3,39.7,60.7,37.6,83c-0.9,9.1,10.6,15.7,20,11.2c52.1-25.4,93.2-66.3,81.8-137.4
		c-2.4-12.7,2.4-37.1,45.9-42.1c43.8-5.1,59.7-19.3,65-25.9c3.2-3.8,5.9-14.5-6.2-15c-12.4-0.5-42.3,7.9-69.4-19.8
		c-27.1-27.7-31.5-38.8-32.3-43.2c-0.9-4.3-28.5-64.5-51.2-32.5c-18.8,26.7-39.7,78.7-107,92.4c-27.3,5.6-62,17.5-72,34.3
		c-16.8,27.9,9.4,47.7,31.8,60.9S243.5,589.6,243.5,589.6L243.5,589.6z"/>
	<path class="st1" d="M305.8,419.7l28.5-24.6l71.5,61.7l-28.5,24.6L305.8,419.7z M215.2,497.9l28.5-24.6l71.5,61.7l-28.5,24.6
		L215.2,497.9z"/>
	<path id="string" class="st3" d="M190.8,555.6l441.4-380.3l10.9,9.4L201.7,564.9L190.8,555.6z M208.5,570.8l441.4-380.3l10.9,9.4
		L219.3,580.2L208.5,570.8z"/>
	<path id="bottom_x5F_of_x5F_string" class="st1" d="M239.9,575.6c7.9,6.9,7.9,18,0,24.6c-7.9,6.9-20.9,6.9-28.5,0l-42.9-37.1
		c-7.9-6.9-7.9-17.8,0-24.6l0,0c7.9-6.9,20.6-6.9,28.5,0L239.9,575.6z"/>
	<ellipse id="big_x5F_circle" class="st1" cx="304.9" cy="596.9" rx="20.3" ry="17.5"/>
	<path id="small_x5F_circle" class="st1" d="M333.4,637.8c0,6.6-6.2,11.9-13.8,11.9c-7.6,0-13.8-5.3-13.8-11.9l0,0
		c0-6.6,6.2-11.9,13.8-11.9C327.3,625.6,333.4,631.2,333.4,637.8z"/>
	<path id="head_x5F_of_x5F_guitar" class="st0" d="M751.3,159.7c8.2,7.4,8.2,19,0,26.4l-88.2,52.8c-8.5,7.1-22.1,7.1-30.6,0
		l-45.9-39.6c-8.2-7.4-8.2-19,0-26.4l61.2-76.2c8.5-7.1,22.1-7.1,30.6,0L751.3,159.7z"/>
</g>
</svg>
