<?xml version="1.0" encoding="utf-8"?>
<!-- Generator: Adobe Illustrator 28.1.0, SVG Export Plug-In . SVG Version: 6.00 Build 0)  -->
<svg version="1.1" id="Layer_1" xmlns="http://www.w3.org/2000/svg" xmlns:xlink="http://www.w3.org/1999/xlink" x="0px" y="0px"
	 viewBox="0 0 800 800" style="enable-background:new 0 0 800 800;" xml:space="preserve">
<style type="text/css">
	.st0{fill:#BB1A34;}
	.st1{fill:#292F33;}
	.st2{fill:#F5F8FA;}
	.st3{fill:#CCD6DD;}
</style>
<g>
	<path class="st0" d="M151.8,421.9c-14.6,4.9-19.5-19.5-19.5-19.5s6.6-6.7,1.6-12.6c7.8-7.8,3.3-11.7,3.3-11.7
		c-13.4-13.4-35.2-13.4-48.7,0c-1.4,1.4-2.7,3-3.8,4.7c-0.4,0.6-0.8,1.2-1.2,1.8l-0.1,0.2c-2,3.2-3.3,6.7-4.2,10.4
		c-1.1,2.2-2.6,4.5-5.4,7.3c-9.7,9.7-34.1-4.9-53.5,14.6c-0.2,0.2-0.3,0.5-0.5,0.7c-0.7,0.6-1.3,1.1-2,1.7
		c-22.9,22.9-20.7,62.1,4.9,87.6c24.3,24.3,60.8,27.4,84,8.1c0.4-0.2,0.8-0.4,1.1-0.7c0.5-0.5,0.9-1,1.3-1.5c0.4-0.3,0.7-0.7,1.1-1
		c11.6-11.6,16.1-25.7,14.4-40c-0.5-6.8-1.1-12.1,2.7-16c4.9-4.9,19.5,0,29.2-9.7C171.2,431.6,161,418.8,151.8,421.9L151.8,421.9z"
		/>
	<path class="st1" d="M104.6,410.5L210.3,305l14.6,14.6L119.3,425.2L104.6,410.5z"/>
	<path class="st2" d="M70.3,480.9c12.3,8.8,13.5,23.9,12.8,32.7c-0.3,3.6,3.6,6.2,6.8,4.4c17.7-10,31.7-26.1,27.8-54.1
		c-0.8-5,0.8-14.6,15.6-16.6c14.9-2,20.3-7.6,22.1-10.2c1.1-1.5,2-5.7-2.1-5.9c-4.2-0.2-14.4,3.1-23.6-7.8
		c-9.2-10.9-10.7-15.3-11-17c-0.3-1.7-9.7-25.4-17.4-12.8c-6.4,10.5-13.5,31-36.4,36.4c-9.3,2.2-21.1,6.9-24.5,13.5
		c-5.7,11,3.2,18.8,10.8,24C58.8,472.7,70.3,480.9,70.3,480.9L70.3,480.9z"/>
	<path class="st1" d="M91.5,414l9.7-9.7l24.3,24.3l-9.7,9.7L91.5,414z M60.7,444.8l9.7-9.7l24.3,24.3l-9.7,9.7L60.7,444.8z"/>
	<path id="string" class="st3" d="M52.4,467.5l150.1-149.8l3.7,3.7L56.1,471.2L52.4,467.5z M58.4,473.5l150.1-149.8l3.7,3.7
		L62.1,477.2L58.4,473.5z"/>
	<path id="bottom_x5F_of_x5F_string" class="st1" d="M69.1,475.4c2.7,2.7,2.7,7.1,0,9.7c-2.7,2.7-7.1,2.7-9.7,0l-14.6-14.6
		c-2.7-2.7-2.7-7,0-9.7l0,0c2.7-2.7,7-2.7,9.7,0L69.1,475.4z"/>
	<circle id="big_x5F_circle" class="st1" cx="91.2" cy="483.8" r="6.9"/>
	<path id="small_x5F_circle" class="st1" d="M100.9,499.9c0,2.6-2.1,4.7-4.7,4.7c-2.6,0-4.7-2.1-4.7-4.7l0,0c0-2.6,2.1-4.7,4.7-4.7
		C98.8,495.1,100.9,497.3,100.9,499.9z"/>
	<path id="head_x5F_of_x5F_guitar" class="st0" d="M243,311.6c2.8,2.9,2.8,7.5,0,10.4l-30,20.8c-2.9,2.8-7.5,2.8-10.4,0L187,327.2
		c-2.8-2.9-2.8-7.5,0-10.4l20.8-30c2.9-2.8,7.5-2.8,10.4,0L243,311.6z"/>
</g>
</svg>
