<?xml version="1.0" encoding="utf-8"?>
<!-- Generator: Adobe Illustrator 28.3.0, SVG Export Plug-In . SVG Version: 6.00 Build 0)  -->
<svg version="1.1" id="Layer_1" xmlns="http://www.w3.org/2000/svg" xmlns:xlink="http://www.w3.org/1999/xlink" x="0px" y="0px"
	 viewBox="0 0 512 512" style="enable-background:new 0 0 512 512;" xml:space="preserve">
<style type="text/css">
	.st0{fill:#656D78;}
	.st1{fill:#FFCE54;}
	.st2{fill:#434A54;}
	.st3{fill:#7F4545;}
	.st4{fill:#965353;}
	.st5{fill:#E6E9ED;}
	.st6{fill:#A85D5D;}
	.st7{fill:#CCD1D9;}
</style>
<g>
	<rect x="219.8" y="407.9" class="st0" width="72" height="19.6"/>
	<g>
		<path class="st1" d="M236.5,424.2c-5.4,0-9.9-4-9.9-8.9v-8.9c0-4.9,4.4-8.9,9.9-8.9s9.9,4,9.9,8.9v8.9
			C246.1,420.1,241.9,424.2,236.5,424.2z"/>
		<path class="st1" d="M275.5,424.2c-5.4,0-9.9-4-9.9-8.9v-8.9c0-4.9,4.4-8.9,9.9-8.9s9.9,4,9.9,8.9v8.9
			C285.4,420.1,281,424.2,275.5,424.2z"/>
	</g>
	<g id="supports">
		<path class="st2" d="M216.7,415.2c-5.4,0-9.9-4-9.9-8.9v-97.4c0-4.9,4.4-8.9,9.9-8.9c5.4,0,9.9,4,9.9,8.9v97.4
			C226.6,411.2,222.2,415.2,216.7,415.2z"/>
		<path class="st2" d="M295.1,415.2c-5.4,0-9.9-4-9.9-8.9v-97.4c0-4.9,4.4-8.9,9.9-8.9c5.4,0,9.9,4,9.9,8.9v97.4
			C304.9,411.2,300.5,415.2,295.1,415.2z"/>
		<path class="st2" d="M461.6,211.6c-2.3,0-4.8-0.7-6.8-2.4L337.4,110c-3.9-3.3-4.1-8.9-0.4-12.6c3.7-3.5,9.9-3.7,13.9-0.3
			l117.4,99.2c3.9,3.3,4.1,8.9,0.4,12.6C466.8,210.6,464.1,211.6,461.6,211.6z"/>
	</g>
	<g id="woodenplanks">
		<path class="st3" d="M30.9,211.6c-4.1,0-7.7-2.3-9.3-5.9c-1.7-4.7,1-9.6,6-11.4L419.2,70.5c5.2-1.6,10.6,0.9,12.6,5.4
			c1.7,4.7-1,9.6-6,11.4L34,211.1C33,211.5,31.8,211.6,30.9,211.6z"/>
		<path class="st3" d="M79.8,300.1H50.4c-5.4,0-9.9,4-9.9,8.9v124c0,4.9,4.4,8.9,9.9,8.9h29.4c5.4,0,9.9-4,9.9-8.9v-124
			C89.5,304.2,85.2,300.1,79.8,300.1z"/>
		<path class="st3" d="M461.6,300.1h-29.4c-5.4,0-9.9,4-9.9,8.9v124c0,4.9,4.4,8.9,9.9,8.9h29.4c5.4,0,9.9-4,9.9-8.9v-124
			C471.5,304.2,467,300.1,461.6,300.1z"/>
	</g>
	<g>
		<path class="st2" d="M40.5,424.2v8.9c0,4.9,4.4,8.9,9.9,8.9h29.4c5.4,0,9.9-4,9.9-8.9v-8.9H40.5z"/>
		<path class="st2" d="M422.3,424.2v8.9c0,4.9,4.4,8.9,9.9,8.9h29.4c5.4,0,9.9-4,9.9-8.9v-8.9H422.3z"/>
	</g>
	<path class="st4" d="M481.1,194H30.9c-5.4,0-9.9,4-9.9,8.9v106.2c0,4.9,4.4,8.9,9.9,8.9h450.3c5.4,0,9.9-4,9.9-8.9V202.9
		C491,197.8,486.6,194,481.1,194z"/>
	<rect id="whitekeys" x="60.3" y="255.9" class="st5" width="391.7" height="26.6"/>
	<g>
		<rect x="451.7" y="255.9" class="st6" width="39.3" height="26.6"/>
		<rect x="21" y="255.9" class="st6" width="39.3" height="26.6"/>
	</g>
	<g id="book">
		<rect x="256" y="185" class="st5" width="39.3" height="53.2"/>
		<rect x="216.7" y="185" class="st5" width="39.3" height="53.2"/>
	</g>
	<g id="blackkeys">
		<path id="key9" class="st2" d="M412.7,273.6c5.4,0,9.9-4,9.9-8.9v-8.7h-19.7v8.9C402.8,269.7,407.3,273.6,412.7,273.6z"/>
		<path id="key8" class="st2" d="M373.4,273.6c5.4,0,9.9-4,9.9-8.9v-8.7h-19.5v8.9C363.7,269.7,368,273.6,373.4,273.6z"/>
		<path id="key7" class="st2" d="M334.3,273.6c5.4,0,9.9-4,9.9-8.9v-8.7h-19.5v8.9C324.5,269.7,328.9,273.6,334.3,273.6z"/>
		<path id="key6" class="st2" d="M295.1,273.6c5.4,0,9.9-4,9.9-8.9v-8.7h-19.7v8.9C285.4,269.7,289.7,273.6,295.1,273.6z"/>
		<path id="key5" class="st2" d="M256,273.6c5.4,0,9.9-4,9.9-8.9v-8.7h-19.5v8.9C246.1,269.7,250.6,273.6,256,273.6z"/>
		<path id="key4" class="st2" d="M216.7,273.6c5.4,0,9.9-4,9.9-8.9v-8.7h-19.5v8.9C207.1,269.7,211.3,273.6,216.7,273.6z"/>
		<path id="key3" class="st2" d="M177.7,273.6c5.4,0,9.9-4,9.9-8.9v-8.7h-19.7v8.9C167.8,269.7,172.3,273.6,177.7,273.6z"/>
		<path id="key2" class="st2" d="M138.4,273.6c5.4,0,9.9-4,9.9-8.9v-8.7h-19.5v8.9C128.7,269.7,133,273.6,138.4,273.6z"/>
		<path id="key1" class="st2" d="M99.3,273.6c5.4,0,9.9-4,9.9-8.9v-8.7H89.5v8.9C89.5,269.7,93.9,273.6,99.3,273.6z"/>
		<path id="footpad" class="st2" d="M295.1,441.8h-78.3c-5.4,0-9.9-4-9.9-8.9v-26.6c0-4.9,4.4-8.9,9.9-8.9h78.3c5.4,0,9.9,4,9.9,8.9
			v26.6C304.9,437.8,300.5,441.8,295.1,441.8z M226.6,424.2h58.8v-8.7h-58.8C226.6,415.4,226.6,424.2,226.6,424.2z"/>
	</g>
	<rect x="246.1" y="185" class="st7" width="19.5" height="53.2"/>
</g>
</svg>
