<?xml version="1.0" encoding="utf-8"?>
<!-- Generator: Adobe Illustrator 28.1.0, SVG Export Plug-In . SVG Version: 6.00 Build 0)  -->
<svg version="1.1" id="Layer_1" xmlns="http://www.w3.org/2000/svg" xmlns:xlink="http://www.w3.org/1999/xlink" x="0px" y="0px"
	 viewBox="0 0 512 512" style="enable-background:new 0 0 512 512;" xml:space="preserve">
<style type="text/css">
	.st0{fill:#656D78;}
	.st1{fill:#FFCE54;}
	.st2{fill:#434A54;}
	.st3{fill:#7F4545;}
	.st4{fill:#965353;}
	.st5{fill:#E6E9ED;}
	.st6{fill:#A85D5D;}
	.st7{fill:#CCD1D9;}
</style>
<g>
	<rect x="102.8" y="342.9" class="st0" width="37.2" height="11.2"/>
	<g>
		<path class="st1" d="M111.4,352.2c-2.8,0-5.1-2.3-5.1-5.1V342c0-2.8,2.3-5.1,5.1-5.1s5.1,2.3,5.1,5.1v5.1
			C116.4,349.9,114.2,352.2,111.4,352.2z"/>
		<path class="st1" d="M131.6,352.2c-2.8,0-5.1-2.3-5.1-5.1V342c0-2.8,2.3-5.1,5.1-5.1c2.8,0,5.1,2.3,5.1,5.1v5.1
			C136.7,349.9,134.4,352.2,131.6,352.2z"/>
	</g>
	<g id="supports">
		<path class="st2" d="M101.2,347.1c-2.8,0-5.1-2.3-5.1-5.1v-55.7c0-2.8,2.3-5.1,5.1-5.1c2.8,0,5.1,2.3,5.1,5.1V342
			C106.3,344.8,104,347.1,101.2,347.1z"/>
		<path class="st2" d="M141.7,347.1c-2.8,0-5.1-2.3-5.1-5.1v-55.7c0-2.8,2.3-5.1,5.1-5.1c2.8,0,5.1,2.3,5.1,5.1V342
			C146.8,344.8,144.5,347.1,141.7,347.1z"/>
		<path class="st2" d="M227.8,230.7c-1.2,0-2.5-0.4-3.5-1.4l-60.7-56.7c-2-1.9-2.1-5.1-0.2-7.2c1.9-2,5.1-2.1,7.2-0.2l60.7,56.7
			c2,1.9,2.1,5.1,0.2,7.2C230.5,230.1,229.1,230.7,227.8,230.7z"/>
	</g>
	<g id="woodenplanks">
		<path class="st3" d="M5.1,230.7c-2.1,0-4-1.3-4.8-3.4c-0.9-2.7,0.5-5.5,3.1-6.5L205.9,150c2.7-0.9,5.5,0.5,6.5,3.1
			c0.9,2.7-0.5,5.5-3.1,6.5L6.7,230.4C6.2,230.6,5.6,230.7,5.1,230.7z"/>
		<path class="st3" d="M30.4,281.3H15.2c-2.8,0-5.1,2.3-5.1,5.1v70.9c0,2.8,2.3,5.1,5.1,5.1h15.2c2.8,0,5.1-2.3,5.1-5.1v-70.9
			C35.4,283.6,33.2,281.3,30.4,281.3z"/>
		<path class="st3" d="M227.8,281.3h-15.2c-2.8,0-5.1,2.3-5.1,5.1v70.9c0,2.8,2.3,5.1,5.1,5.1h15.2c2.8,0,5.1-2.3,5.1-5.1v-70.9
			C232.9,283.6,230.6,281.3,227.8,281.3z"/>
	</g>
	<g>
		<path class="st2" d="M10.1,352.2v5.1c0,2.8,2.3,5.1,5.1,5.1h15.2c2.8,0,5.1-2.3,5.1-5.1v-5.1H10.1z"/>
		<path class="st2" d="M207.5,352.2v5.1c0,2.8,2.3,5.1,5.1,5.1h15.2c2.8,0,5.1-2.3,5.1-5.1v-5.1H207.5z"/>
	</g>
	<path class="st4" d="M237.9,220.6H5.1c-2.8,0-5.1,2.3-5.1,5.1v60.7c0,2.8,2.3,5.1,5.1,5.1h232.8c2.8,0,5.1-2.3,5.1-5.1v-60.7
		C243,222.8,240.7,220.6,237.9,220.6z"/>
	<rect id="whitekeys" x="20.3" y="256" class="st5" width="202.5" height="15.2"/>
	<g>
		<rect x="222.7" y="256" class="st6" width="20.3" height="15.2"/>
		<rect x="0" y="256" class="st6" width="20.3" height="15.2"/>
	</g>
	<g id="book">
		<rect x="121.5" y="215.5" class="st5" width="20.3" height="30.4"/>
		<rect x="101.2" y="215.5" class="st5" width="20.3" height="30.4"/>
	</g>
	<g id="blackkeys">
		<path id="key9" class="st2" d="M202.5,266.1c2.8,0,5.1-2.3,5.1-5.1v-5h-10.2v5.1C197.4,263.9,199.7,266.1,202.5,266.1z"/>
		<path id="key8" class="st2" d="M182.2,266.1c2.8,0,5.1-2.3,5.1-5.1v-5h-10.1v5.1C177.2,263.9,179.4,266.1,182.2,266.1z"/>
		<path id="key7" class="st2" d="M162,266.1c2.8,0,5.1-2.3,5.1-5.1v-5h-10.1v5.1C156.9,263.9,159.2,266.1,162,266.1z"/>
		<path id="key6" class="st2" d="M141.7,266.1c2.8,0,5.1-2.3,5.1-5.1v-5h-10.2v5.1C136.7,263.9,138.9,266.1,141.7,266.1z"/>
		<path id="key5" class="st2" d="M121.5,266.1c2.8,0,5.1-2.3,5.1-5.1v-5h-10.1v5.1C116.4,263.9,118.7,266.1,121.5,266.1z"/>
		<path id="key4" class="st2" d="M101.2,266.1c2.8,0,5.1-2.3,5.1-5.1v-5H96.2v5.1C96.2,263.9,98.4,266.1,101.2,266.1z"/>
		<path id="key3" class="st2" d="M81,266.1c2.8,0,5.1-2.3,5.1-5.1v-5H75.9v5.1C75.9,263.9,78.2,266.1,81,266.1z"/>
		<path id="key2" class="st2" d="M60.7,266.1c2.8,0,5.1-2.3,5.1-5.1v-5H55.7v5.1C55.7,263.9,57.9,266.1,60.7,266.1z"/>
		<path id="key1" class="st2" d="M40.5,266.1c2.8,0,5.1-2.3,5.1-5.1v-5H35.4v5.1C35.4,263.9,37.7,266.1,40.5,266.1z"/>
		<path id="footpad" class="st2" d="M141.7,362.3h-40.5c-2.8,0-5.1-2.3-5.1-5.1V342c0-2.8,2.3-5.1,5.1-5.1h40.5
			c2.8,0,5.1,2.3,5.1,5.1v15.2C146.8,360,144.5,362.3,141.7,362.3z M106.3,352.2h30.4v-5h-30.4V352.2z"/>
	</g>
	<rect x="116.4" y="215.5" class="st7" width="10.1" height="30.4"/>
</g>
</svg>
