<?xml version="1.0" encoding="utf-8"?>
<!-- Generator: Adobe Illustrator 28.1.0, SVG Export Plug-In . SVG Version: 6.00 Build 0)  -->
<svg version="1.1" id="Layer_1" xmlns="http://www.w3.org/2000/svg" xmlns:xlink="http://www.w3.org/1999/xlink" x="0px" y="0px"
	 viewBox="0 0 800 800" style="enable-background:new 0 0 800 800;" xml:space="preserve">
<style type="text/css">
	.st0{fill:#DE7F11;}
	.st1{fill:#333333;}
	.st2{fill:#B3660D;}
	.st3{fill:#E2D8C7;}
</style>
<g>
	<path class="st0" d="M125,498.6c1.1-11.4,6.7-14.8,10.4-15.3c13.3-1.9,10.5-6.3,7.7-7.7c-15.4-7.5-3.1-23.8-0.4-27.3
		c9.6-12.8,25.7-4,25.7-4c-1.3-18.8,14.3-17.8,22.2-22.2c35.9-20,5.2-49.7-5.5-60.4c-10.7-10.7-40.5-41.4-60.4-5.5
		c-4.4,7.9-3.4,23.6-22.2,22.2c0,0,8.8,16.1-4,25.7c-3.6,2.7-19.8,15-27.3-0.4c-1.4-2.8-5.8-5.6-7.7,7.7c-0.5,3.7-3.8,9.6-15.3,10.4
		c-27.6,1.8-34.4,39.9,1.3,75.7C85.6,533.5,122.5,525,125,498.6L125,498.6z"/>
	<path class="st1" d="M140.5,421.7l-15.8-15.8l110.9-103l7.9,7.9L140.5,421.7z M253.1,298.7l13.3,13.3l-3.3,3.3L249.8,302
		L253.1,298.7z"/>
	<g>
		<path class="st1" d="M234.9,286.3l11.1,11.1l-3.3,3.3l-11.1-11.1L234.9,286.3z"/>
		<path class="st1" d="M232.9,295.6l-3.5-7.5l3.9-3.9l7.5,3.5L232.9,295.6z"/>
	</g>
	<g>
		<path class="st1" d="M244.4,305l13.3,13.3l-3.3,3.4L241,308.3L244.4,305z"/>
		<path class="st1" d="M255.7,311.7l3.5,7.5l-3.9,3.9l-7.5-3.5L255.7,311.7z"/>
	</g>
	<path class="st1" d="M223.4,294.1l13.3,13.3l-3.3,3.3l-13.3-13.3L223.4,294.1z"/>
	<path class="st2" d="M262.4,298.5L248,284l7.9-5.5l12,12.1L262.4,298.5z"/>
	<path class="st0" d="M241.4,316.7l11-16.6l5.2-0.9l10.3-15.5l-5.2-5.2l-15.5,10.3l-0.9,5.2l-16.6,11L241.4,316.7z"/>
	<path class="st1" d="M114.8,413.2c0.5-1.3,0.8-3.3-0.6-4.8c-10.8-10.8-28.5,25.4-35.7,18.2c-1.6-1.6-1.2-2.9-0.7-3.7
		c0.9,0.1,1.8-0.2,2.5-0.8c1.2-1.2,1.2-3,0-4.2l0,0c-1.2-1.2-3-1.2-4.2,0l0,0c-1,1-1.1,2.5-0.4,3.6c-0.9,1.3-2.5,4.5,0.5,7.5
		c10.2,10.2,29.3-24.9,35.8-18.4c0.4,0.4,0.5,1,0.4,1.6c-0.7,0.1-1.3,0.3-1.8,0.8c-1.2,1.2-1.2,3,0,4.2s3,1.2,4.2,0
		C115.8,416.2,115.9,414.4,114.8,413.2L114.8,413.2z M133.2,431.6c1.3-0.5,3.3-0.8,4.8,0.6c10.8,10.8-25.4,28.5-18.2,35.7
		c1.6,1.6,2.9,1.2,3.7,0.7c-0.1-0.9,0.2-1.8,0.8-2.5c1.2-1.2,3-1.2,4.2,0l0,0c1.2,1.2,1.2,3,0,4.2c0,0,0,0,0,0c-1,1-2.5,1.1-3.6,0.4
		c-1.3,0.9-4.5,2.5-7.5-0.5c-10.2-10.2,24.9-29.4,18.4-35.9c-0.4-0.4-1-0.5-1.6-0.4c0,0.7-0.3,1.3-0.8,1.8c-1.2,1.2-3,1.2-4.2,0
		c-1.2-1.2-1.2-3,0-4.2C130.3,430.6,132.1,430.6,133.2,431.6L133.2,431.6z"/>
	<path class="st1" d="M81.8,444.1c0,0-5.1,8.5-6.3,11.6c-1,2.8-1.2,8.9-2.6,11.5c-4.6,8.3-26.8,26.8-26.8,26.8l6.4,6.4
		c0,0,18.5-22.2,26.8-26.8c2.6-1.4,8.7-1.6,11.5-2.6c3.1-1.2,11.6-6.3,11.6-6.3L81.8,444.1z"/>
	<path id="string" class="st1" d="M126.4,404.7l1.5,1.5l-44.8,44.9l-1.5-1.5L126.4,404.7z M140.1,418.4l1.5,1.5l-44.8,44.9l-1.5-1.5
		L140.1,418.4z M135.6,413.9l1.5,1.6l-44.8,44.8l-1.5-1.6L135.6,413.9z M131,409.3l1.6,1.5l-44.8,44.8l-1.5-1.5L131,409.3z"/>
	<g id="VOILIN_x5F_BAR">
		<path id="violin_x5F_bar" class="st2" d="M45.1,313l188.3,188.3l-4.3,4.2L40.8,317.3L45.1,313z"/>
		<path class="st3" d="M35.1,323l188.3,188.3l-4.2,4.2L30.9,327.3L35.1,323z"/>
		<path class="st1" d="M39.2,335.6l-14.3-14.3l20.2-8.3l8.3,8.3L39.2,335.6z M210.8,507.2l14.3,14.3l8.3-20.2l-8.3-8.3L210.8,507.2z
			"/>
	</g>
	<path class="st1" d="M205.8,493.7l17.6,17.6l-4.2,4.2L201.6,498L205.8,493.7z"/>
</g>
</svg>
