<?xml version="1.0" encoding="utf-8"?>
<!-- Generator: Adobe Illustrator 28.3.0, SVG Export Plug-In . SVG Version: 6.00 Build 0)  -->
<svg version="1.1" id="Layer_1" xmlns="http://www.w3.org/2000/svg" xmlns:xlink="http://www.w3.org/1999/xlink" x="0px" y="0px"
	 viewBox="0 0 800 800" style="enable-background:new 0 0 800 800;" xml:space="preserve">
<style type="text/css">
	.st0{fill:#DE7F11;}
	.st1{fill:#333333;}
	.st2{fill:#B3660D;}
	.st3{fill:#E2D8C7;}
</style>
<g>
	<path class="st0" d="M366,651c2.9-30.7,17.5-39.8,27.2-41.2c34.8-5.1,27.5-17,20.2-20.7c-40.3-20.2-8.1-64-1-73.5
		c25.1-34.4,67.3-10.8,67.3-10.8c-3.4-50.6,37.4-47.9,58.1-59.7c94-53.8,13.6-133.7-14.4-162.5c-28-28.8-106-111.4-158.1-14.8
		c-11.5,21.3-8.9,63.5-58.1,59.7c0,0,23,43.3-10.5,69.2c-9.4,7.3-51.8,40.4-71.5-1.1c-3.7-7.5-15.2-15.1-20.2,20.7
		c-1.3,10-9.9,25.8-40,28c-72.2,4.8-90,107.4,3.4,203.7C262.9,744.9,359.4,722.1,366,651L366,651z"/>
	<path class="st1" d="M406.6,444.1l-41.4-42.5l290.3-277.2l20.7,21.3L406.6,444.1z M701.3,113.1l34.8,35.8l-8.6,8.9L692.6,122
		L701.3,113.1z"/>
	<g>
		<path class="st1" d="M653.6,79.7l29.1,29.9l-8.6,8.9L645,88.6L653.6,79.7z"/>
		<path class="st1" d="M648.4,104.8l-9.2-20.2l10.2-10.5l19.6,9.4L648.4,104.8z"/>
	</g>
	<g>
		<path class="st1" d="M678.5,130l34.8,35.8l-8.6,9.1l-35.1-36.1L678.5,130z"/>
		<path class="st1" d="M708.1,148.1l9.2,20.2L707,178.8l-19.6-9.4L708.1,148.1z"/>
	</g>
	<path class="st1" d="M623.5,100.7l34.8,35.8l-8.6,8.9l-34.8-35.8L623.5,100.7z"/>
	<path class="st2" d="M725.6,112.6l-37.7-39l20.7-14.8L740,91.3L725.6,112.6z"/>
	<path class="st0" d="M670.6,161.5l28.8-44.7l13.6-2.4l27-41.7l-13.6-14l-40.6,27.7l-2.4,14L640,130L670.6,161.5z"/>
	<path class="st1" d="M339.3,421.2c1.3-3.5,2.1-8.9-1.6-12.9c-28.3-29.1-74.6,68.4-93.4,49c-4.2-4.3-3.1-7.8-1.8-10
		c2.4,0.3,4.7-0.5,6.5-2.2c3.1-3.2,3.1-8.1,0-11.3l0,0c-3.1-3.2-7.9-3.2-11,0l0,0c-2.6,2.7-2.9,6.7-1,9.7
		c-2.4,3.5-6.5,12.1,1.3,20.2c26.7,27.4,76.7-67,93.7-49.5c1,1.1,1.3,2.7,1,4.3c-1.8,0.3-3.4,0.8-4.7,2.2c-3.1,3.2-3.1,8.1,0,11.3
		c3.1,3.2,7.9,3.2,11,0C341.9,429.3,342.2,424.4,339.3,421.2L339.3,421.2z M387.5,470.7c3.4-1.3,8.6-2.2,12.6,1.6
		c28.3,29.1-66.5,76.7-47.6,96.1c4.2,4.3,7.6,3.2,9.7,1.9c-0.3-2.4,0.5-4.8,2.1-6.7c3.1-3.2,7.9-3.2,11,0l0,0
		c3.1,3.2,3.1,8.1,0,11.3l0,0c-2.6,2.7-6.5,3-9.4,1.1c-3.4,2.4-11.8,6.7-19.6-1.3c-26.7-27.4,65.2-79.1,48.2-96.6
		c-1-1.1-2.6-1.3-4.2-1.1c0,1.9-0.8,3.5-2.1,4.8c-3.1,3.2-7.9,3.2-11,0c-3.1-3.2-3.1-8.1,0-11.3C379.9,468,384.6,468,387.5,470.7
		L387.5,470.7z"/>
	<path class="st1" d="M252.9,504.4c0,0-13.3,22.9-16.5,31.2c-2.6,7.5-3.1,23.9-6.8,30.9c-12,22.3-70.1,72.1-70.1,72.1l16.8,17.2
		c0,0,48.4-59.7,70.1-72.1c6.8-3.8,22.8-4.3,30.1-7c8.1-3.2,30.4-17,30.4-17L252.9,504.4z"/>
	<path id="string" class="st1" d="M369.7,398.3l3.9,4L256.3,523.2l-3.9-4L369.7,398.3z M405.5,435.2l3.9,4L292.2,560.1l-3.9-4
		L405.5,435.2z M393.7,423.1l3.9,4.3L280.4,548l-3.9-4.3L393.7,423.1z M381.7,410.7l4.2,4L268.6,535.3l-3.9-4L381.7,410.7z"/>
	<g id="VOILIN_x5F_BAR">
		<path id="violin_x5F_bar" class="st2" d="M156.9,151.6l492.8,506.7l-11.3,11.3L145.6,163.1L156.9,151.6z"/>
		<path class="st3" d="M130.7,178.5l492.8,506.7l-11,11.3L119.7,190.1L130.7,178.5z"/>
		<path class="st1" d="M141.4,212.4L104,173.9l52.9-22.3l21.7,22.3L141.4,212.4z M590.6,674.2l37.4,38.5l21.7-54.4L628,636
			L590.6,674.2z"/>
	</g>
	<path class="st1" d="M577.5,637.8l46.1,47.4l-11,11.3l-46.1-47.1L577.5,637.8z"/>
</g>
</svg>
